<?xml version="1.0" encoding="utf-8"?>
<svg xmlns="http://www.w3.org/2000/svg" viewBox="0 0 980 380" width="980" height="380" role="img" aria-label="Profile header">
  <defs>
    <filter id="shadow" x="-50%" y="-50%" width="200%" height="200%">
      <feDropShadow dx="0" dy="6" stdDeviation="10" flood-color="#000" flood-opacity="0.25"/>
    </filter>

    <clipPath id="smallAvatarClip">
      <!-- small circular avatar inside header -->
      <circle cx="74" cy="70" r="34" />
    </clipPath>

    <clipPath id="bigAvatarClip">
      <!-- big avatar below -->
      <rect x="40" y="140" rx="12" ry="12" width="140" height="140"/>
    </clipPath>

    <style type="text/css"><![CDATA[
      .hdr-name { font: 700 22px/1 -apple-system, BlinkMacSystemFont, "Segoe UI", Roboto, "Helvetica Neue", Arial; fill:#ffffff; }
      .hdr-user { font: 400 12px/1 -apple-system, BlinkMacSystemFont, "Segoe UI", Roboto, "Helvetica Neue", Arial; fill:#bdbdbd; }
      .badge-num { font: 700 12px/1 -apple-system, BlinkMacSystemFont, "Segoe UI", Roboto, Arial; fill:#0b1220; }
      .about-title { font: 700 20px/1 "Courier New", Courier, monospace; fill:#0b1220; }
      .about-line { font: 400 14px/1 -apple-system, BlinkMacSystemFont, "Segoe UI", Roboto, Arial; fill:#222222; }
      .link { text-decoration: underline; fill:#1a73e8; font-weight:600; }
    ]]></style>
  </defs>

  <!-- Top rounded header -->
  <rect x="20" y="20" width="940" height="100" rx="24" ry="24" fill="#0f0f12" filter="url(#shadow)"/>
  <!-- subtle inner gradient band -->
  <rect x="20" y="20" width="940" height="100" rx="24" ry="24" fill="url(#none)" opacity="0.03"/>

  <!-- small avatar inside header (replace href) -->
  <image href="https://via.placeholder.com/68" x="40" y="36" width="68" height="68" clip-path="url(#smallAvatarClip)" preserveAspectRatio="xMidYMid slice"/>
  <circle cx="74" cy="70" r="34" fill="none" stroke="rgba(255,255,255,0.08)" stroke-width="1"/>

  <!-- name & username -->
  <text x="122" y="58" class="hdr-name">Vinod Jangid</text>
  <text x="122" y="86" class="hdr-user">GitHub.com/vinodjangid07</text>

  <!-- Stats badges on right (rounded pills) -->
  <!-- Badge 1 -->
  <g transform="translate(500,52)">
    <rect x="0" y="0" rx="18" ry="18" width="92" height="36" fill="#cfeeff"/>
    <circle cx="22" cy="18" r="12" fill="#9ad6ff" />
    <text x="42" y="22" class="badge-num">277</text>
  </g>

  <!-- Badge 2 -->
  <g transform="translate(604,52)">
    <rect x="0" y="0" rx="18" ry="18" width="92" height="36" fill="#ffd6ea"/>
    <circle cx="22" cy="18" r="12" fill="#ffb8d0" />
    <text x="42" y="22" class="badge-num">47</text>
  </g>

  <!-- Badge 3 -->
  <g transform="translate(708,52)">
    <rect x="0" y="0" rx="18" ry="18" width="92" height="36" fill="#ffe9bf"/>
    <circle cx="22" cy="18" r="12" fill="#ffd37a" />
    <text x="42" y="22" class="badge-num">435</text>
  </g>

  <!-- Badge 4 -->
  <g transform="translate(812,52)">
    <rect x="0" y="0" rx="18" ry="18" width="92" height="36" fill="#d9ffd8"/>
    <circle cx="22" cy="18" r="12" fill="#9ef2a7" />
    <text x="42" y="22" class="badge-num">1216</text>
  </g>


  <image href="https://via.placeholder.com/160" x="40" y="140" width="140" height="140" clip-path="url(#bigAvatarClip)" preserveAspectRatio="xMidYMid slice" />
  <rect x="40" y="140" width="140" height="140" rx="12" ry="12" fill="none" stroke="rgba(0,0,0,0.04)"/>

  <!-- Inline title next to big avatar (single row with avatar) -->
  <text x="220" y="170" class="about-title">HI, I AM VINOD</text>

  <!-- About lines -->
  <text x="220" y="200" class="about-line">👋 Hi, I’m A ...</text>
  <text x="220" y="222" class="about-line">💻 Frontend Developer &amp; Digital Concept Artist ...</text>
  <text x="220" y="244" class="about-line">🤝 I’m looking for collaborations and making products ...</text>

  <!-- Portfolio link -->
  <text x="220" y="274" class="about-line">Visit <tspan class="link">Portfolio</tspan> to know more about me ...</text>

  <!-- WakaTime badge (replace YOUR_WAKATIME_ID) -->
  <image href="https://wakatime.com/badge/user/YOUR_WAKATIME_ID.svg" x="40" y="310" width="180" height="28" />

</svg>
